<svg width="16" height="20" viewBox="0 0 16 20" fill="none" xmlns="http://www.w3.org/2000/svg">
<path d="M15.4996 6.82173C15.4122 6.87744 13.3338 8.0531 13.3338 10.6598C13.4318 13.6326 15.9567 14.6752 16 14.6752C15.9567 14.7309 15.6188 16.0954 14.6179 17.5257C13.8236 18.7578 12.942 20 11.6032 20C10.3297 20 9.87257 19.1788 8.40317 19.1788C6.82518 19.1788 6.37868 20 5.17051 20C3.83173 20 2.88479 18.6912 2.04717 17.4707C0.958967 15.8732 0.0340318 13.3664 0.00137868 10.9593C-0.0206267 9.68384 0.219303 8.43004 0.828355 7.36507C1.68798 5.87831 3.22268 4.86905 4.89864 4.83577C6.18276 4.79164 7.32562 5.73434 8.1093 5.73434C8.86032 5.73434 10.2644 4.83577 11.853 4.83577C12.5388 4.83649 14.3673 5.04703 15.4996 6.82173ZM8.00069 4.5811C7.77212 3.41629 8.40317 2.25148 8.99093 1.50846C9.74195 0.609897 10.9281 0 11.951 0C12.0163 1.16481 11.6025 2.30719 10.8628 3.1392C10.1991 4.03777 9.05624 4.71422 8.00069 4.5811Z" fill="white"/>
</svg>
